<!-- icon666.com - MILLIONS vector ICONS FREE --><svg viewBox="0 -4 480 480" xmlns="http://www.w3.org/2000/svg"><path d="m472 456h-112c-4.417969 0-8 3.582031-8 8s3.582031 8 8 8h112c4.417969 0 8-3.582031 8-8s-3.582031-8-8-8zm0 0"></path><path d="m445.007812 352.304688c-.230468 0-.441406.0625-.664062.054687-.59375-.015625-1.1875.035156-1.769531.152344-.398438.0625-.789063.160156-1.175781.289062-.5625.203125-1.097657.472657-1.597657.800781-.378906.234376-.734375.5-1.066406.796876-.207031.1875-.453125.273437-.644531.472656-.167969.257812-.320313.527344-.457032.800781-.296874.402344-.550781.835937-.761718 1.289063-.238282.511718-.417969 1.046874-.535156 1.597656-.101563.246094-.1875.496094-.257813.753906.007813.230469.023437.460938.050781.6875-.015625.535156.023438 1.070312.117188 1.601562.070312.488282.1875.964844.355468 1.429688.179688.472656.40625.921875.679688 1.34375.265625.46875.585938.902344.949219 1.296875.160156.175781.234375.390625.410156.550781 1.144531 1.035156 1.375 1.707032 1.375 1.832032 0 1.601562-7.71875 8-24 8s-24-6.398438-24-8c0-.125.230469-.796876 1.375-1.832032.175781-.160156.25-.375.410156-.550781.363281-.394531.683594-.828125.953125-1.296875.265625-.425781.496094-.875.679688-1.34375.164062-.464844.28125-.941406.351562-1.429688.09375-.53125.132813-1.066406.117188-1.601562.03125-.226562.046875-.453125.050781-.679688-.066406-.273437-.152344-.539062-.257813-.800781-.117187-.527343-.292968-1.042969-.519531-1.535156-.222656-.472656-.488281-.917969-.800781-1.335937-.128906-.253907-.273438-.5-.429688-.738282-.175781-.183594-.410156-.261718-.601562-.429687-.359375-.320313-.746094-.609375-1.160156-.855469-.476563-.324219-.984375-.589844-1.519532-.800781-.40625-.132813-.820312-.234375-1.238281-.304688-.574219-.109375-1.160156-.160156-1.746093-.144531-.230469 0-.441407-.078125-.671876-.054688-19.980468 2.550782-34.964843 19.535157-35.007812 39.679688v48c0 4.417969 3.582031 8 8 8h112c4.417969 0 8-3.582031 8-8v-48c-.035156-20.144531-15.011719-37.136719-34.992188-39.695312zm18.992188 79.695312h-96v-40c.011719-7.261719 3.308594-14.125 8.96875-18.671875 3.832031 10.9375 19.3125 18.671875 39.03125 18.671875s35.199219-7.734375 39.03125-18.671875c5.660156 4.546875 8.957031 11.410156 8.96875 18.671875zm0 0"></path><path d="m376 312c0 22.089844 17.910156 40 40 40s40-17.910156 40-40-17.910156-40-40-40c-22.082031.027344-39.972656 17.917969-40 40zm40-24c13.253906 0 24 10.746094 24 24s-10.746094 24-24 24-24-10.746094-24-24 10.746094-24 24-24zm0 0"></path><path d="m339.6875 295.296875-27.6875-14.402344v-16.894531c0-4.417969-3.582031-8-8-8h-208c-4.417969 0-8 3.582031-8 8v160c0 4.417969 3.582031 8 8 8h24.960938c4.417968 0 8-3.582031 8-8s-3.582032-8-8-8h-16.960938v-144h192v13.761719c.019531.945312.207031 1.882812.558594 2.765625.089844.234375.1875.464844.296875.6875.339843.703125.777343 1.351562 1.304687 1.929687.097656.101563.160156.222657.265625.328125.554688.554688 1.191407 1.019532 1.886719 1.382813l18.351562 9.542969-18.351562 9.539062c-.695312.363281-1.332031.832031-1.886719 1.390625-.105469.097656-.167969.222656-.265625.328125-.527344.574219-.96875 1.222656-1.304687 1.929688-.109375.222656-.210938.453124-.296875.6875-.351563.878906-.539063 1.816406-.558594 2.765624v96.960938h-141.761719c-4.417969 0-8 3.582031-8 8s3.582031 8 8 8h149.761719c4.417969 0 8-3.582031 8-8v-100.105469l27.6875-14.398437c2.652344-1.375 4.3125-4.113282 4.3125-7.101563 0-2.984375-1.660156-5.722656-4.3125-7.097656zm0 0"></path><path d="m216 344c0 8.835938-7.164062 16-16 16s-16-7.164062-16-16 7.164062-16 16-16 16 7.164062 16 16zm0 0"></path><path d="m160 344c0 8.835938-7.164062 16-16 16s-16-7.164062-16-16 7.164062-16 16-16 16 7.164062 16 16zm0 0"></path><path d="m272 344c0 8.835938-7.164062 16-16 16s-16-7.164062-16-16 7.164062-16 16-16 16 7.164062 16 16zm0 0"></path><path d="m8 184h112c4.417969 0 8-3.582031 8-8v-48c-.035156-20.144531-15.011719-37.136719-34.992188-39.695312-.230468 0-.441406.0625-.664062.054687-.605469-.019531-1.214844.035156-1.808594.160156-.992187.144531-1.9375.519531-2.757812 1.097657-.382813.234374-.746094.503906-1.082032.796874-.191406.179688-.4375.257813-.625.457032-.183593.199218-.269531.511718-.445312.761718-.3125.402344-.582031.839844-.800781 1.304688-.234375.492188-.410157 1.011719-.527344 1.542969-.105469.261719-.191406.527343-.257813.800781.003907.230469.019532.457031.050782.6875-.015625.535156.023437 1.070312.117187 1.597656.070313.488282.1875.96875.351563 1.433594.179687.46875.410156.921875.679687 1.34375.269531.464844.589844.902344.953125 1.296875.160156.175781.234375.390625.410156.550781 1.140626 1.03125 1.375 1.703125 1.375 1.832032 0 1.601562-7.71875 8-24 8s-24-6.398438-24-8c0-.128907.230469-.800782 1.375-1.832032.175782-.160156.25-.375.410157-.550781.363281-.394531.683593-.832031.949219-1.296875.269531-.425781.496093-.875.679687-1.34375.167969-.464844.285156-.945312.351563-1.433594.09375-.527344.136718-1.0625.121093-1.597656.027344-.226562.046875-.453125.046875-.679688-.066406-.273437-.152344-.539062-.253906-.800781-.230469-1.042969-.679688-2.019531-1.320312-2.871093-.167969-.234376-.238282-.503907-.433594-.730469-.191406-.222657-.40625-.261719-.589844-.429688-.359375-.320312-.75-.605469-1.160156-.855469-.828125-.554687-1.769532-.921874-2.753906-1.074218-.578126-.109375-1.167969-.160156-1.757813-.144532-.234375 0-.441406-.078124-.671875-.054687-19.964844 2.570313-34.9257812 19.542969-34.96875 39.671875v48c0 4.417969 3.582031 8 8 8zm8-56c.011719-7.261719 3.308594-14.125 8.96875-18.671875 3.832031 10.9375 19.3125 18.671875 39.03125 18.671875s35.199219-7.734375 39.03125-18.671875c5.660156 4.546875 8.957031 11.410156 8.96875 18.671875v40h-96zm0 0"></path><path d="m64 88c22.089844 0 40-17.910156 40-40s-17.910156-40-40-40-40 17.910156-40 40c.027344 22.082031 17.917969 39.972656 40 40zm0-64c13.253906 0 24 10.746094 24 24s-10.746094 24-24 24-24-10.746094-24-24 10.746094-24 24-24zm0 0"></path><path d="m128 208c0-4.417969-3.582031-8-8-8h-112c-4.417969 0-8 3.582031-8 8s3.582031 8 8 8h112c4.417969 0 8-3.582031 8-8zm0 0"></path><path d="m359.039062 176h24.960938c4.417969 0 8-3.582031 8-8v-160c0-4.417969-3.582031-8-8-8h-208c-4.417969 0-8 3.582031-8 8v16.894531l-27.6875 14.402344c-2.652344 1.375-4.3125 4.113281-4.3125 7.097656 0 2.988281 1.660156 5.726563 4.3125 7.101563l27.6875 14.398437v100.105469c0 4.417969 3.582031 8 8 8h149.761719c4.417969 0 8-3.582031 8-8s-3.582031-8-8-8h-141.761719v-96.960938c-.019531-.949218-.207031-1.886718-.558594-2.765624-.085937-.234376-.1875-.464844-.296875-.6875-.335937-.707032-.777343-1.355469-1.304687-1.929688-.097656-.105469-.160156-.230469-.265625-.328125-.554688-.558594-1.191407-1.027344-1.886719-1.390625l-18.351562-9.539062 18.351562-9.542969c.695312-.363281 1.332031-.828125 1.886719-1.382813.105469-.105468.167969-.226562.265625-.328125.527344-.578125.964844-1.226562 1.304687-1.929687.109375-.222656.207031-.453125.296875-.6875.351563-.882813.539063-1.820313.558594-2.765625v-13.761719h192v144h-16.960938c-4.417968 0-8 3.582031-8 8s3.582032 8 8 8zm0 0"></path><path d="m296 88c0 8.835938-7.164062 16-16 16s-16-7.164062-16-16 7.164062-16 16-16 16 7.164062 16 16zm0 0"></path><path d="m352 88c0 8.835938-7.164062 16-16 16s-16-7.164062-16-16 7.164062-16 16-16 16 7.164062 16 16zm0 0"></path><path d="m240 88c0 8.835938-7.164062 16-16 16s-16-7.164062-16-16 7.164062-16 16-16 16 7.164062 16 16zm0 0"></path></svg>