<!-- icon666.com - MILLIONS vector ICONS FREE --><svg id="Layer_1" viewBox="0 0 50 50" xmlns="http://www.w3.org/2000/svg"><g><path d="m14.0548 11.9472c.2654.8575 1.0615 1.4292 1.9395 1.4292h.3461c-1.0972.027-1.9909.9319-1.9909 2.045v5.14h1.24v-4.3c0-.57.45-1.02 1.02-1.02h27.56c.57 0 1.02.45 1.02 1.02v9.46c0 .57-.45 1.02-1.02 1.02h-20.7v6.88h20.91c1.13 0 2.04-.91 2.04-2.04v-16.16c0-1.1131-.8842-2.0179-1.9906-2.045h.3525c.8779 0 1.6742-.5717 1.9396-1.4292l2.2253-7.7394c.2245-.6533-.2858-1.3271-.9595-1.3271h-35.1979c-.6942 0-1.1842.6738-.9597 1.3271zm20.1646 19.6242c0 .3-.25.57-.58.57h-6.5099c-.32 0-.57-.27-.57-.57v-2.78c0-.3.25-.57.57-.57h6.5099c.33 0 .58.27.58.57zm-19.8789-27.1594h32.0947c.4288 0 .7145.4084.592.7963l-1.7762 6.2898c-.0612.2043-.245.3472-.4695.3472h-28.7873c-.2245 0-.4083-.1429-.4695-.3472l-1.7762-6.2898c-.1226-.388.1838-.7963.592-.7963z"></path><path d="m27.9244 18.7426h1.45c.28 0 .5-.22.5-.5v-1.45c0-.27-.22-.5-.5-.5h-1.45c-.28 0-.5.23-.5.5v1.45c0 .28.2201.5.5.5z"></path><path d="m27.4244 21.7126c0 .28.22.5.5.5h1.45c.28 0 .5-.22.5-.5v-1.45c0-.27-.22-.5-.5-.5h-1.45c-.28 0-.5.23-.5.5z"></path><path d="m31.4045 18.7426h1.4499c.27 0 .5-.22.5-.5v-1.45c0-.27-.23-.5-.5-.5h-1.4499c-.28 0-.5.23-.5.5v1.45c0 .28.22.5.5.5z"></path><path d="m30.9045 21.7126c0 .28.22.5.5.5h1.4499c.27 0 .5-.22.5-.5v-1.45c0-.27-.23-.5-.5-.5h-1.4499c-.28 0-.5.23-.5.5z"></path><path d="m34.8745 18.7426h1.45c.28 0 .5-.22.5-.5v-1.45c0-.27-.22-.5-.5-.5h-1.45c-.27 0-.5.23-.5.5v1.45c0 .28.2299.5.5.5z"></path><path d="m34.3745 21.7126c0 .28.23.5.5.5h1.45c.28 0 .5-.22.5-.5v-1.45c0-.27-.22-.5-.5-.5h-1.45c-.27 0-.5.23-.5.5z"></path><path d="m23.9445 25.1926c0 .27.23.5.5.5h11.88c.28 0 .5-.23.5-.5v-1.45c0-.28-.22-.5-.5-.5h-11.88c-.27 0-.5.22-.5.5z"></path><path d="m37.8544 21.7126c0 .28.22.5.5.5h1.45c.27 0 .5-.22.5-.5v-1.45c0-.27-.23-.5-.5-.5h-1.45c-.28 0-.5.23-.5.5z"></path><path d="m20.9745 18.7426h1.45c.28 0 .5-.22.5-.5v-1.45c0-.27-.22-.5-.5-.5h-1.45c-.28 0-.5.23-.5.5v1.45c0 .28.22.5.5.5z"></path><path d="m38.3544 18.7426h1.45c.27 0 .5-.22.5-.5v-1.45c0-.27-.23-.5-.5-.5h-1.45c-.28 0-.5.23-.5.5v1.45c0 .28.2201.5.5.5z"></path><path d="m17.4945 18.7426h1.45c.28 0 .5-.22.5-.5v-1.45c0-.27-.22-.5-.5-.5h-1.45c-.27 0-.5.23-.5.5v1.45c0 .28.23.5.5.5z"></path><path d="m19.4495 20.2614c0-.27-.22-.5-.5-.5h-1.45c-.27 0-.5.23-.5.5v.3h2.45z"></path><path d="m22.9294 21.1914v-.93c0-.27-.22-.5-.5-.5h-1.45c-.28 0-.5.23-.5.5v.3h.99c.57 0 1.0901.24 1.46.63z"></path><path d="m24.4445 18.7426h1.45c.28 0 .5-.22.5-.5v-1.45c0-.27-.22-.5-.5-.5h-1.45c-.27 0-.5.23-.5.5v1.45c0 .28.2299.5.5.5z"></path><path d="m23.9445 21.7126c0 .28.23.5.5.5h1.45c.28 0 .5-.22.5-.5v-1.45c0-.27-.22-.5-.5-.5h-1.45c-.27 0-.5.23-.5.5z"></path><path d="m41.3245 21.7126c0 .28.23.5.5.5h1.45c.28 0 .5-.22.5-.5v-1.45c0-.27-.22-.5-.5-.5h-1.45c-.27 0-.5.23-.5.5z"></path><path d="m41.3245 25.1926c0 .27.23.5.5.5h1.45c.28 0 .5-.23.5-.5v-1.45c0-.28-.22-.5-.5-.5h-1.45c-.27 0-.5.22-.5.5z"></path><path d="m37.8544 25.1926c0 .27.22.5.5.5h1.45c.27 0 .5-.23.5-.5v-1.45c0-.28-.23-.5-.5-.5h-1.45c-.28 0-.5.22-.5.5z"></path><path d="m41.8245 18.7426h1.45c.28 0 .5-.22.5-.5v-1.45c0-.27-.22-.5-.5-.5h-1.45c-.27 0-.5.23-.5.5v1.45c0 .28.2299.5.5.5z"></path><path d="m1.275 43.6848c-.152 0-.275.123-.275.275s.123.275.275.275h.1v1.8845c0 .5523.4477 1 1 1h19.0933c.5523 0 1-.4477 1-1v-23.561c0-.5522-.4477-1-1-1h-19.0933c-.5523 0-1 .4478-1 1v1.9225h-.1c-.152 0-.275.123-.275.275s.123.275.275.275h.1v2.6508h-.1c-.152 0-.275.123-.275.275 0 .1519.123.2749.275.2749h.1v2.6508h-.1c-.152 0-.275.123-.275.275s.123.275.275.275h.1v2.6508h-.1c-.152-.0001-.275.1229-.275.2748s.123.2749.275.2749h.1v2.6509h-.1c-.152 0-.275.123-.275.2749 0 .152.123.275.275.275h.1v2.6508h-.1c-.152 0-.275.123-.275.275s.123.275.275.275h.1v2.6505h-.1zm3.9679-20.5481h15.2305v22.4041h-15.2305zm-3.5074 21.0981h.8573c.1057.236.3406.4018.6158.4018.3738 0 .6768-.303.6768-.6768 0-.3739-.303-.6768-.6768-.6768-.2753 0-.5101.1658-.6158.4018h-.8573v-2.6505h.8138c.1078.2581.3621.4397.6593.4397.3948 0 .7148-.3201.7148-.7149 0-.3949-.3201-.7148-.7148-.7148-.2974 0-.5516.1818-.6594.4401h-.8137v-2.6508h.8138c.1078.2581.3621.4398.6593.4398.3948 0 .7148-.3201.7148-.7148 0-.395-.3201-.7149-.7148-.7149-.2974 0-.5517.1818-.6594.4401h-.8137v-2.6509h.8138c.1078.2582.3621.4398.6594.4398.3948 0 .7148-.3201.7148-.7148 0-.3949-.3201-.7148-.7148-.7148-.2973 0-.5516.1816-.6594.44h-.8138v-2.6508h.8138c.1078.2582.3621.4398.6594.4398.3948 0 .7148-.3201.7148-.7148 0-.3949-.3201-.7148-.7148-.7148-.2973 0-.5516.1817-.6594.4399h-.8138v-2.6508h.8138c.1078.2582.3621.4399.6594.4399.3948 0 .7148-.3201.7148-.7148 0-.395-.3201-.7149-.7148-.7149-.2973 0-.5516.1816-.6594.4399h-.8138v-2.6508h.8138c.1078.2582.3621.4399.6594.4399.3948 0 .7148-.3201.7148-.7148 0-.3949-.3201-.7148-.7148-.7148-.2972 0-.5516.1816-.6594.4398h-.8138v-1.3441h2.9574v22.4041h-2.9574z"></path><path d="m6.809 24.786h12.098v.55h-12.098z"></path><path d="m6.809 27.437h12.098v.55h-12.098z"></path><path d="m6.809 30.088h12.098v.55h-12.098z"></path><path d="m6.809 32.738h12.098v.55h-12.098z"></path><path d="m6.809 35.389h12.098v.55h-12.098z"></path><path d="m6.809 38.04h12.098v.55h-12.098z"></path><path d="m6.809 40.691h12.098v.55h-12.098z"></path><path d="m6.809 43.342h12.098v.55h-12.098z"></path></g></svg>